<mxfile host="65bd71144e">
    <diagram id="iRNEWCbYfMjy0Ex1GfN0" name="Page-1">
        <mxGraphModel dx="953" dy="910" grid="1" gridSize="10" guides="1" tooltips="1" connect="1" arrows="1" fold="1" page="1" pageScale="1" pageWidth="827" pageHeight="1169" math="0" shadow="0">
            <root>
                <mxCell id="0"/>
                <mxCell id="1" parent="0"/>
                <mxCell id="19" style="edgeStyle=none;html=1;" edge="1" parent="1" source="17" target="18">
                    <mxGeometry relative="1" as="geometry"/>
                </mxCell>
                <mxCell id="17" value="SHA1" style="rounded=0;whiteSpace=wrap;html=1;gradientColor=none;dashed=1;" vertex="1" parent="1">
                    <mxGeometry x="10" y="330" width="120" height="60" as="geometry"/>
                </mxCell>
                <mxCell id="45" style="edgeStyle=none;html=1;startArrow=none;startFill=0;" edge="1" parent="1" source="18" target="40">
                    <mxGeometry relative="1" as="geometry"/>
                </mxCell>
                <mxCell id="46" style="edgeStyle=none;html=1;entryX=0;entryY=0.5;entryDx=0;entryDy=0;startArrow=none;startFill=0;" edge="1" parent="1" source="18" target="29">
                    <mxGeometry relative="1" as="geometry"/>
                </mxCell>
                <mxCell id="47" style="edgeStyle=none;html=1;entryX=0;entryY=0.5;entryDx=0;entryDy=0;startArrow=none;startFill=0;" edge="1" parent="1" source="18" target="27">
                    <mxGeometry relative="1" as="geometry"/>
                </mxCell>
                <mxCell id="18" value="File Metadata&lt;br&gt;- sha1&lt;br&gt;- tags&lt;br&gt;- name&lt;br&gt;- fileName&lt;br&gt;- filePath&lt;br&gt;- ino&lt;br&gt;- downloadUlrs" style="rounded=0;whiteSpace=wrap;html=1;" vertex="1" parent="1">
                    <mxGeometry x="80" y="500" width="140" height="150" as="geometry"/>
                </mxCell>
                <mxCell id="27" value="Curseforge Project&lt;br&gt;- project url&lt;br&gt;- project id&lt;br&gt;- project slug&lt;br&gt;- file id list&lt;br&gt;- categories" style="rounded=0;whiteSpace=wrap;html=1;" vertex="1" parent="1">
                    <mxGeometry x="510" y="390" width="180" height="110" as="geometry"/>
                </mxCell>
                <mxCell id="29" value="Modrinth Project&lt;br&gt;- project url&lt;br&gt;- project id&lt;br&gt;- project slug&lt;br&gt;- categories" style="rounded=0;whiteSpace=wrap;html=1;" vertex="1" parent="1">
                    <mxGeometry x="520" y="531.25" width="160" height="87.5" as="geometry"/>
                </mxCell>
                <mxCell id="33" style="edgeStyle=none;html=1;" edge="1" parent="1" source="32" target="18">
                    <mxGeometry relative="1" as="geometry"/>
                </mxCell>
                <mxCell id="32" value="INODE" style="rounded=0;whiteSpace=wrap;html=1;dashed=1;" vertex="1" parent="1">
                    <mxGeometry x="220" y="330" width="120" height="60" as="geometry"/>
                </mxCell>
                <mxCell id="40" value="Forge File&lt;br&gt;- modid&lt;br&gt;- version&lt;br&gt;- forgeMetadata*&lt;br&gt;" style="rounded=0;whiteSpace=wrap;html=1;gradientColor=none;" vertex="1" parent="1">
                    <mxGeometry x="537.5" y="650" width="125" height="90" as="geometry"/>
                </mxCell>
                <mxCell id="44" style="edgeStyle=none;html=1;entryX=0.5;entryY=1;entryDx=0;entryDy=0;startArrow=classic;startFill=1;" edge="1" parent="1" source="41" target="18">
                    <mxGeometry relative="1" as="geometry"/>
                </mxCell>
                <mxCell id="41" value="Tag" style="rounded=0;whiteSpace=wrap;html=1;gradientColor=none;dashed=1;" vertex="1" parent="1">
                    <mxGeometry x="30" y="780" width="120" height="60" as="geometry"/>
                </mxCell>
                <mxCell id="49" style="edgeStyle=none;html=1;startArrow=none;startFill=0;" edge="1" parent="1" source="48" target="18">
                    <mxGeometry relative="1" as="geometry"/>
                </mxCell>
                <mxCell id="48" value="Text" style="rounded=0;whiteSpace=wrap;html=1;gradientColor=none;dashed=1;" vertex="1" parent="1">
                    <mxGeometry x="170" y="780" width="120" height="60" as="geometry"/>
                </mxCell>
            </root>
        </mxGraphModel>
    </diagram>
</mxfile>